<?xml version="1.0" standalone="no"?>
<!DOCTYPE svg PUBLIC "-//W3C//DTD SVG 20010904//EN"
 "http://www.w3.org/TR/2001/REC-SVG-20010904/DTD/svg10.dtd">
<svg version="1.0" xmlns="http://www.w3.org/2000/svg"
 width="1000.000000pt" height="1000.000000pt" viewBox="0 0 1000.000000 1000.000000"
 preserveAspectRatio="xMidYMid meet">
<metadata>
Created by potrace 1.14, written by Peter Selinger 2001-2017
</metadata>
<g transform="translate(0.000000,1000.000000) scale(0.100000,-0.100000)"
fill="#000000" stroke="none">
<path d="M4759 9056 c-2 -2 -44 -6 -94 -10 -49 -3 -101 -8 -115 -10 -14 -3
-50 -7 -80 -10 -102 -12 -209 -31 -445 -82 -11 -2 -76 -20 -145 -40 -660 -190
-1243 -532 -1732 -1014 -265 -262 -470 -526 -661 -852 -137 -232 -280 -554
-353 -793 -14 -44 -31 -100 -39 -125 -43 -141 -103 -430 -121 -585 -3 -33 -8
-67 -9 -75 -19 -107 -27 -624 -12 -785 12 -130 37 -324 51 -391 2 -12 7 -38
10 -58 3 -19 11 -57 17 -83 6 -27 13 -58 15 -71 10 -52 97 -344 131 -437 159
-444 400 -862 714 -1240 127 -152 453 -473 543 -534 11 -8 44 -34 71 -56 61
-51 275 -202 351 -247 31 -18 63 -38 72 -43 441 -266 1030 -469 1537 -530 33
-4 71 -9 85 -11 110 -14 230 -19 445 -19 218 0 438 10 456 21 3 1 37 6 75 10
38 3 78 8 89 10 11 3 38 7 60 10 22 3 46 7 54 10 8 3 30 7 50 10 74 11 321 74
446 115 430 137 849 353 1200 617 271 205 578 505 757 740 23 31 46 59 49 62
3 3 42 57 86 120 170 241 339 553 445 820 76 190 181 540 203 671 4 28 14 77
20 99 1 3 5 32 10 65 5 33 10 62 10 65 1 3 5 37 9 75 5 39 10 78 12 89 26 141
25 762 -1 898 -2 11 -7 49 -11 86 -3 37 -7 69 -9 72 -2 3 -6 26 -10 50 -4 25
-13 75 -21 112 -7 37 -16 82 -19 100 -3 18 -19 83 -35 143 -101 382 -238 712
-435 1045 -73 123 -227 352 -255 380 -3 3 -19 23 -35 45 -102 138 -345 397
-506 542 -242 218 -573 441 -879 594 -146 72 -343 159 -363 159 -7 0 -17 4
-23 9 -30 29 -527 169 -691 195 -16 2 -48 8 -73 12 -25 4 -49 8 -55 9 -5 0
-32 4 -60 8 -27 3 -75 9 -105 13 -30 3 -66 8 -80 10 -30 6 -596 14 -601 10z"/>
</g>
</svg>
