<svg id="Layer_1" data-name="Layer 1" xmlns="http://www.w3.org/2000/svg" viewBox="0 0 2000 2000"><defs><style>.cls-1{fill:#e60c44;}</style></defs><path class="cls-1" d="M994.5,1061.8c0-7.1.1-14.1,0-21.2-.3-12.2-.6-24.5-1.2-36.7-.9-18.2-1-36.4-1.4-54.6a65.3,65.3,0,0,1,1.1-12.5,5.85,5.85,0,0,1,5-4.6c3.7-.3,7.6-.6,10.7,1.6,3.3,2.4,6.8,4.6,9.6,7.5a230.74,230.74,0,0,0,33.8,27.1,172.06,172.06,0,0,0,55.7,24.7,133,133,0,0,0,15.3,2.9,51.71,51.71,0,0,0,11.1-.3c17.9-2.1,34.3-9,49.6-18.6a24.26,24.26,0,0,0,2-1.4c4-2.8,8.6-4.1,13.3-5a17.43,17.43,0,0,1,14.7,3.6c3.2,2.6,6.4,5.1,9.5,7.8,9.6,8.5,19,17.1,28.6,25.6,1.2,1.1,2.5,2.1,3.8,3.1,11.8,8.5,23.5,17.1,35.4,25.4,6.7,4.7,13.8,8.8,20.7,13.1a4.71,4.71,0,0,0,2.1.2c.9.1,1.1-1.3.2-2.8-1.8-3.2-3.7-6.5-5.6-9.6-2.7-4.4-5.7-8.7-8.3-13.2-2.8-4.8-5.6-9.7-7.9-14.7a59.33,59.33,0,0,1-5.7-25.9c0-12.2,4.4-22.4,13.7-30.4a339.16,339.16,0,0,0,49.9-53.8,244.89,244.89,0,0,0,32.1-57.1c8-20.4,15.7-40.9,22-61.9,1.3-4.4,3.2-8.3,6.5-11.4a13.72,13.72,0,0,1,19.9.5c4.4,4.7,6,10.2,3.8,16.4a81.91,81.91,0,0,1-4.1,9.1c-11.8,24.4-23.2,49-33.1,74.2-2.6,6.6-5.1,13.1-7.4,19.8-4,11.6-7.7,23.3-8.7,35.6-.2,2.8-1.3,4.7-4,5.6-1.2.4-2.4.8-3.6,1.3a100.44,100.44,0,0,0-36,25.4c-2.3,2.6-1.8,4.3,1.7,5.6a18,18,0,0,0,2.1.8c5.8,1.4,11.4,3.3,17.3,4.2a167,167,0,0,0,40,1.4c23.5-2.2,45.9-8.4,67.6-17.6a935.67,935.67,0,0,0,89.8-44.4c20.1-11.2,39.8-23.1,59.7-34.6,7.1-4.1,14.2-8,21.3-12.1,5.8-3.3,11.7-6.5,17.4-10,37-22.7,74.1-45.4,110.9-68.4q24.15-15,47.5-31.2c21.7-15,42.9-30.6,64.4-46,4.5-3.2,9-6.5,13.7-9.6a50,50,0,0,1,6.9-3.6c7.2-3.5,15.3,1.1,18.3,6.2a14.94,14.94,0,0,1-2.7,18.3,35.64,35.64,0,0,1-5.3,4.1c-6.4,4.2-12.8,8.4-19.3,12.3q-34.65,20.55-68.1,42.7c-21.7,14.4-44.2,27.7-66.6,41.1-10.2,6.1-20.3,12.3-30.5,18.4-4.4,2.7-8.8,5.6-13.3,8.2-17.4,10.1-34,21.3-50.5,32.6-10.4,7.1-20.7,14.5-31.1,21.6-20.6,14-40.1,29.5-59.1,45.6-11,9.4-21.7,19.2-32.6,28.7-9.6,8.2-19.4,16.2-29.1,24.3a35.77,35.77,0,0,1-5.5,3.8c-5.3,3.1-11,4.5-17.1,3.1-4.7-1.1-9.4-2.4-13.9-3.9-4.9-1.6-9.7-3.6-14.7-5.2a19.47,19.47,0,0,0-5.4-.6c-1-.1-1.5.6-1.1,1.5a15.09,15.09,0,0,0,2.2,3.7c5.9,6.7,11.8,13.4,17.9,19.9a1022.23,1022.23,0,0,0,94.6,88c20.3,16.8,41.3,32.8,62.8,48.1,11.9,8.4,23.1,17.7,34.3,27,7.2,6,14.5,11.7,22.1,17.2,14,10.2,27.4,21.1,41.2,31.6,5,3.8,10.2,7.5,15.2,11.3,5.9,4.5,11.8,9,17.7,13.6a14.83,14.83,0,0,1,6,11.5,15.31,15.31,0,0,1-14.8,16.3c-8.1.3-15.3-2.6-21.6-7.6-2.9-2.3-5.3-5.2-7.9-7.9a809.31,809.31,0,0,0-179-137.1c-14.9-8.4-30-16.3-45.5-23.6-2.7-1.3-5.3-2.7-8-3.9a7.1,7.1,0,0,1-4.1-5,102.12,102.12,0,0,0-6.4-17.8c-10.7-22.7-26.7-40.9-47.3-55.2a164.05,164.05,0,0,0-34.5-18c-6.2-2.4-12.5-4.6-18.8-6.9a127.71,127.71,0,0,0-26-6.1,43,43,0,0,0-19.8,2,10.27,10.27,0,0,0-3.8,2.2c-.7.7-1.5,2-1.3,2.9a50.17,50.17,0,0,0,7.2,17.4c5,8.2,9.9,16.6,15.1,24.7,8.9,14.1,17.9,28.1,26.9,42.2,1,1.5,2,3,3.2,4.5q15.3,19.65,30.7,39.3c2.5,3.1,6.6,8.1,9.3,11,7.4,8.3,14.7,16.7,22.1,25,4.6,5.1,9.2,10.3,14.2,15,7.1,6.7,7.2,15.2,5.2,24.1a7.25,7.25,0,0,1-4.9,5c-8.7,2-16.2.6-22.6-4.9a48.65,48.65,0,0,1-7.6-8.1c-3.4-4.9-6.9-9.7-10.3-14.6-9-13.1-18.6-25.7-29.7-37.1-2.1-2.2-4.2-4.4-6.3-6.8-13.3-15.2-27.9-28.9-44.7-40.1-13.6-9.1-27-18.3-40.8-27.1-10.6-6.8-21.8-12.7-32.1-20a16,16,0,0,0-3-1.3,1.73,1.73,0,0,0-1,.1,1.33,1.33,0,0,0-.6.9,11.27,11.27,0,0,0,.5,3.2c4.4,11.9,10.1,23.1,18.2,33a78,78,0,0,1,10.3,15.8,20.21,20.21,0,0,1,1.9,10.8,12.37,12.37,0,0,1-17,10.6,23.73,23.73,0,0,1-10.3-8.2,75.61,75.61,0,0,1-5.2-8.6c-5-9.5-10.1-19-14.7-28.8-8.4-17.8-18.1-35-27.4-52.3a97.54,97.54,0,0,0-15.9-21.4c-1.9-2-3.3-2.2-5.9-.7a57.48,57.48,0,0,0-8.5,5.3c-6.7,5.4-9.2,12.3-7.1,20.8a68.43,68.43,0,0,0,7.1,17.5c6.4,11.3,12.9,22.6,19.3,33.8,5.5,9.7,12.5,18.5,19,27.5,5.7,7.8,11.3,15.6,16.9,23.5a39.94,39.94,0,0,1,6.2,13,14.1,14.1,0,0,1-1.2,10.8,9.89,9.89,0,0,1-7,5.1,16,16,0,0,1-12.7-2.7,29.34,29.34,0,0,1-8.3-8.9c-2.2-3.7-4.3-7.5-6.2-11.3-17-35.1-36.6-68.8-59.8-100.1-9.1-12.3-6.9-11.1-20.2-11.2a80.08,80.08,0,0,0-36.5,8.7c-1.3.7-2.5,1.6-3.7,2.4a1.27,1.27,0,0,0-.5,1.9,27.55,27.55,0,0,0,1.7,2.9c8.6,10.8,15.7,22.5,23.1,34.1,12.4,19.4,24.8,38.8,37,58.3,7.7,12.3,15.3,24.6,22.6,37.1,14.8,25.3,29.6,50.6,43.3,76.6a227.65,227.65,0,0,0,17.2,27.3c3.5,4.8,6.7,9.8,8.6,15.5a52,52,0,0,1,2,7.5c1.1,8.1-5.3,14.5-13.5,13.6a18.14,18.14,0,0,1-11.7-5.9,46.59,46.59,0,0,1-5.9-8.1,110.29,110.29,0,0,1-5.6-12.1,351.34,351.34,0,0,0-21.2-44.2c-14.8-26.2-29.5-52.4-45.7-77.8-11.4-17.8-22.2-36.1-33.4-54q-6.15-9.9-12.9-19.5c-6.6-9.4-13.5-18.7-20.2-28a63,63,0,0,0-18.5-17.5c-8.8-5.3-18.4-7.9-28.8-6.3a4.69,4.69,0,0,0-2.1.6,5.1,5.1,0,0,0-2,2.4,37.13,37.13,0,0,0-.4,6.7c0,10.2.2,20.4.2,30.7a221,221,0,0,0,3.4,35.4c.8,4.5.6,8.8-1.9,13.1a7.52,7.52,0,0,1-2.8,2.8c-7.3,4.2-14.1,3-20.5-1.2a7.28,7.28,0,0,1-1.7-1.8,21.22,21.22,0,0,1-3.3-9.4c-.2-3-.3-5.9-.3-8.9l.6-46.8C994.7,1061.8,994.6,1061.8,994.5,1061.8Zm73.6-46.6c4.4-.1,8.9-.3,13.3-.4a7.16,7.16,0,0,0,2.9-1c-.8-.8-1.5-2.3-2.6-2.9-18.8-9.6-37.7-19.2-56.5-28.8a17.23,17.23,0,0,0-2.1-.7c-1.3-.5-3.3.6-3.3,2.1-.1,5.6-.3,11.3.1,16.9a9.93,9.93,0,0,0,7.3,8.9A211.25,211.25,0,0,0,1068.1,1015.2Z"/><path class="cls-1" d="M977.4,983.1v24.2c0,4.1-.2,8.2-.4,12.2-.3,7.3-5.1,15.3-16.3,17-1.1.2-2.2.2-3.3.3-11.5.9-23,1.5-34.4,2.7a263.39,263.39,0,0,0-38.3,7.1A60,60,0,0,0,858,1062a134.23,134.23,0,0,0-15,17.9,371.3,371.3,0,0,0-20.2,32.3,51.25,51.25,0,0,0-2.5,5.3,190.68,190.68,0,0,1-11.8,24c-.5.9-1.3,2.4-1.7,3.3-12.9,28.1-27,55.5-38.7,84.1-6.9,16.8-13.4,33.8-18.7,51.2a83.39,83.39,0,0,1-7.1,17.5,30.47,30.47,0,0,1-5.4,7c-4.8,4.6-11.1,5.4-16.4,2.5-6.3-3.4-9.9-10.1-8.3-16.7a52.86,52.86,0,0,1,4.2-11.5c35.2-66.7,64.9-136,93.4-205.8,2.1-5.2,4.2-10.3,6.4-15.4,4.6-10.6,7.8-21.6,10.7-32.8a23,23,0,0,0-.7-14.2c-1.5-3.8-2.9-7.6-4.4-11.4-.7-1.7-2.4-2.1-3.3-.8-4.6,7.7-10.5,14.4-15.8,21.6a290.81,290.81,0,0,0-26.6,45c-7.4,15.4-14.5,30.9-20.3,47-3.6,10.1-8,20-12,30a42.87,42.87,0,0,1-9.6,14.9c-3.7,3.8-8.5,5.8-15.7,3.5a9.45,9.45,0,0,1-6.1-6.2c-1.4-4.5-1.8-9,.2-13.2,1.6-3.3,3.3-6.7,5.2-9.8a431.91,431.91,0,0,0,23-43.6c.4-.9.8-1.7,1.3-2.6,8.8-16,15.5-33,21.6-50.2,3-8.4,5.9-16.8,9-25.2.4-1.2-.7-2.9-2.2-3.3a36.84,36.84,0,0,0-16.5-.6,13.07,13.07,0,0,0-8.2,5.4,54.26,54.26,0,0,0-3.5,5.7c-6.7,12-13.5,23.9-19.3,36.4a81.2,81.2,0,0,1-11,18c-5.3,6.4-11.8,7-19.1,5.2a9.24,9.24,0,0,1-5.8-4.8,15.11,15.11,0,0,1-1.7-10.8,33,33,0,0,1,4.8-12.4,118.65,118.65,0,0,1,7.3-9.8c7.2-8.6,12.5-18.4,17.4-28.4a29.25,29.25,0,0,0,1.3-4.2,2.7,2.7,0,0,0-1.5-2.6c-8.2-2-15.5-.5-21.6,5.5-1.8,1.8-3.6,3.8-5.3,5.8a289,289,0,0,0-31.9,45.6c-2.3,4.2-4.9,8.3-7.5,12.4-9.1,14.9-18.3,29.7-27.3,44.7-7.8,13.1-15.2,26.4-23.2,39.4-4.9,7.9-10.3,15.4-15.8,22.9a31.7,31.7,0,0,1-14.9,11.3c-6.6,2.4-16.1-1.4-18.8-9.6-1.7-5.1-.7-9.7,1.9-14.1a21.84,21.84,0,0,1,2.2-3.1c4.4-5.2,8.6-10.6,13.2-15.6a142.57,142.57,0,0,0,14.3-18.5c18.2-28.1,35.5-56.6,50.7-86.4,5-9.9,10.4-19.7,14.5-30.1.5-1.4.9-2.8,1.4-4.2a2.57,2.57,0,0,0-1.6-2.6,34.13,34.13,0,0,0-5.4-1c-16.3-1.2-31.7,2.5-46.4,9.4a135.06,135.06,0,0,0-30.7,20,258.94,258.94,0,0,0-28.9,29.4,83,83,0,0,0-16.2,29,28.85,28.85,0,0,1-2.6,6.3,4.35,4.35,0,0,1-.6.7,76.73,76.73,0,0,1-7,3.6,802.54,802.54,0,0,0-225.8,160.6c-2.4,2.4-4.8,4.7-7,7.2-5,5.5-11.5,8.1-18.5,9.6a17,17,0,0,1-11.9-1.4c-9.1-4.8-11.3-15.9-4.7-23.6a18.14,18.14,0,0,1,2.4-2.4c5-3.9,9.8-8,15-11.6,13.3-9.2,25.9-19.3,38.5-29.3,2.4-1.9,6.6-5,9.1-6.8,17.2-12.1,33.3-25.6,49.6-38.9,5.5-4.5,11.1-8.8,16.9-12.9,57-40.6,110-85.7,158.1-136.4,6.4-6.7,12.5-13.7,18.7-20.7A23.49,23.49,0,0,0,550,994a1.08,1.08,0,0,0,0-1.1,1,1,0,0,0-1-.4,24.13,24.13,0,0,0-5.4.5c-4.6,1.4-9.1,3.3-13.7,4.8-4.2,1.4-8.5,2.7-12.8,3.9-8.1,2.3-15.5.7-22.1-4.3-5.1-3.8-10-7.7-14.8-11.8-11.4-9.5-22.2-19.7-33.7-29.1-8.6-7.1-16.7-14.8-25.2-21.9-15.7-13.1-31.8-25.6-48.7-37.2-18.1-12.3-36.1-24.8-54.3-37.1-8-5.4-16.3-10.4-24.5-15.5-12.3-7.6-24.6-15.3-37-22.8-13.3-8.1-26.8-15.9-40.2-24-10.4-6.3-20.8-12.7-30.9-19.4-25.2-16.7-50.6-33.1-76.8-48.2-6.4-3.7-12.5-7.9-18.6-12a23.24,23.24,0,0,1-5-4.4c-4.9-6-4.9-13.2.4-19.3,3.2-3.7,10.1-6.9,16.2-3.9a64.44,64.44,0,0,1,7.8,4.2c4.9,3.3,9.8,6.8,14.6,10.3,30.2,22.2,60.6,44.2,92.2,64.5,15.6,10,31.5,19.7,47.3,29.5,26.5,16.4,52.9,33.1,79.6,49.3,43.8,26.5,88.2,52.2,133.9,75.4,8.9,4.5,18,8.8,27,13.2,9.7,4.7,19.3,9.6,29.1,14,13.9,6.3,27.7,12.5,41.8,18.2a167.86,167.86,0,0,0,43,11c11.5,1.4,23,1.4,34.3-1.6,2.9-.7,4.1-2.6,3.9-5.8-.3-5.8-2.4-10.8-5.5-15.6-2.2-3.3-2.3-7-1.7-10.7a15.14,15.14,0,0,1,17-11.8l1.5.3c5,1.7,8.1,5.6,11.1,9.5,4.5,5.9,9.2,11.7,13.2,17.9,4.4,6.7,10.4,10.2,18,11.9a182.85,182.85,0,0,0,32,3.9,298.39,298.39,0,0,0,40.1-1c5.9-.6,11.8-.9,17.8-1.5a4.52,4.52,0,0,0,1.7-1.1c.8-.6.2-2.4-1.2-3.1a31.37,31.37,0,0,1-6.3-4.5c-2.1-1.9-4.6-3.3-6.6-5.2a13.8,13.8,0,0,1-4.4-9.9c-.3-6.2,3.8-10.9,9.8-11.3a20.19,20.19,0,0,1,5.5.1,11.15,11.15,0,0,1,5,2.1,93.3,93.3,0,0,1,7.3,6.8,111.88,111.88,0,0,0,30,21,83.16,83.16,0,0,0,26.7,7.5,71,71,0,0,0,28.6-2.8,139.54,139.54,0,0,0,21.7-8.5,231.4,231.4,0,0,0,43.2-27.3,36.79,36.79,0,0,1,4.4-3.4c4.3-2.7,10.4-.5,11.7,4.4a28.65,28.65,0,0,1,1.1,7.7C978.2,959.4,978.8,970.5,977.4,983.1Zm-83.7,34.3c11.5-.5,22.9-1,34.3-2.9a110.25,110.25,0,0,0,21.9-5.7,2.59,2.59,0,0,0,1.7-2.4c.4-7.4.8-14.9,1.1-22.3.1-2.2-.1-4.4-.2-6.6,0-.8-1.7-1.8-2.5-1.5-1.4.6-2.7,1.1-4,1.8-19.1,9.8-38.1,19.8-57.7,28.4-4.4,1.9-8.7,4.2-13,6.3-1,.5-1.9,1.2-2.8,1.7a1.24,1.24,0,0,0-.5,1.9,1,1,0,0,0,.8.6C879.7,1017,886.7,1017.2,893.7,1017.4Z"/><path class="cls-1" d="M620.7,940.4c.2,9-8.2,14.1-14.8,14a27.34,27.34,0,0,1-9.8-1.7,50.52,50.52,0,0,1-10.8-5.7c-7.2-5.2-14.3-10.6-21.5-15.9a5.17,5.17,0,0,1-2.2-3.7c-.8-14.6-5.4-28.4-10.2-42-8.8-24.8-19.6-48.9-30.7-72.7-3.3-7.1-6.8-14-10.1-21.1a37,37,0,0,1-2.8-7.2c-1.7-6.3.2-11.8,4.9-16.1a13.75,13.75,0,0,1,18.3-.4,19.72,19.72,0,0,1,6.3,9c.9,2.4,1.5,5,2.3,7.4A551,551,0,0,0,564.4,851a233,233,0,0,0,16.2,30.4,92.79,92.79,0,0,0,17.9,21.1,142.71,142.71,0,0,1,11,11,50,50,0,0,1,8.8,14.1A32.46,32.46,0,0,1,620.7,940.4Z"/><path class="cls-1" d="M1129,972.4c-1.1-.1-2.2-.1-3.3-.2-14.7-1.3-20-15.1-16.4-25.9a27.32,27.32,0,0,1,9.6-13.3c2.6-2,5.5-3.8,8.2-5.7,4.6-3.1,9.2-6.2,13.7-9.5a84.38,84.38,0,0,0,19.2-19.9,45,45,0,0,0,4-7.9c1.6-3.7,2.9-7.6,4.6-11.3a16.08,16.08,0,0,1,6.5-7.4,12.53,12.53,0,0,1,15.3,1.9,13.85,13.85,0,0,1,4,13.2,24.47,24.47,0,0,1-5.7,11.9c-1.8,2-3.5,4-5.3,6a97.33,97.33,0,0,0-11.7,16.1c-3.7,6.4-7.6,12.6-11.6,18.8a127.27,127.27,0,0,0-11.6,24.1,11.69,11.69,0,0,1-7.6,7.4A39.38,39.38,0,0,1,1129,972.4Z"/></svg>