<svg id="Layer_1" data-name="Layer 1" xmlns="http://www.w3.org/2000/svg" viewBox="0 0 143 143"><defs><style>.cls-1{fill:#dedede;fill-rule:evenodd;}</style></defs><path class="cls-1" d="M71.25,0a71.25,71.25,0,1,0,71.24,71.25A71.25,71.25,0,0,0,71.25,0ZM37.06,23.55a.4.4,0,0,1,.33-.27l7-.74,2.87-6.43a.41.41,0,0,1,.72,0l2.87,6.43,7,.74a.4.4,0,0,1,.34.27.41.41,0,0,1-.11.42l-5.22,4.71,1.45,6.88a.4.4,0,0,1-.16.41.42.42,0,0,1-.43,0l-6.09-3.51L41.52,36a.39.39,0,0,1-.43,0,.38.38,0,0,1-.15-.41l1.45-6.88L37.17,24A.39.39,0,0,1,37.06,23.55Zm76.79,87.23s-26.19-1.82-33-2.19c-.38-.76-.75-1.5-1.11-2.27-1.48-3.23-1.41-5.85.27-8.47l1-1.14c.59-.69,1.2-1.39,1.8-2.06,1.12-1.26,2.28-2.56,3.33-4a21.87,21.87,0,0,0,4-10.71,13.25,13.25,0,0,0-.36-5.27.91.91,0,0,0-.51-.62.41.41,0,0,0-.18,0,.75.75,0,0,0-.74.54l-.21.49-.43,1a3.71,3.71,0,0,1-2.63,2.42,13.18,13.18,0,0,1-1.3.3A20.82,20.82,0,0,0,77.28,81c-2.19,1.17-4.61,4.11-6,7.64,0,0-.15,0-.17,0-1.34-3.53-3.75-6.47-5.94-7.64a20.82,20.82,0,0,0-6.51-2.18,12.15,12.15,0,0,1-1.31-.3,3.71,3.71,0,0,1-2.63-2.42l-.43-1-.2-.49a.77.77,0,0,0-.75-.54.34.34,0,0,0-.17,0,.86.86,0,0,0-.51.62A13.25,13.25,0,0,0,52.34,80a21.87,21.87,0,0,0,4,10.71c1.06,1.41,2.21,2.71,3.33,4,.6.67,1.22,1.37,1.81,2.06.32.39.65.77,1,1.14,1.67,2.62,1.75,5.24.26,8.47-.35.77-.72,1.51-1.11,2.27-6.79.37-32.93,2.19-33,2.19a2.38,2.38,0,0,1-2.44-2.38c0-.86.21-3.93,4-6.17s3.61-3.35,3.86-5.43c0,0,2.33-35.12,2.46-37.1.05-1.08.06-1.79,0-2-.23-1.82-.16-3.25-3.86-5.43s-4-5.31-4-6.17A2.38,2.38,0,0,1,31,43.73c.27,0,4.1.23,9,.52,2.26.1,20.33.22,20.33.22a1,1,0,0,1,.82.47,2.53,2.53,0,0,1,.21.34S71,64.77,71,64.9h0c.21.31.22.31.44,0h0c.07-.13,9.6-19.62,9.6-19.62a2.53,2.53,0,0,1,.21-.34,1,1,0,0,1,.82-.47s18.07-.12,20.33-.22c4.94-.29,8.77-.52,9-.52a2.37,2.37,0,0,1,2.31,2.37c0,.86-.2,3.93-4,6.17s-3.64,3.61-3.86,5.43a17.81,17.81,0,0,0,0,2c.08,1.79,2.46,37.1,2.46,37.1.25,2.08.16,3.25,3.86,5.43s4,5.31,4,6.17A2.38,2.38,0,0,1,113.85,110.78Z"/></svg>